<?xml version="1.0" encoding="utf-8"?>
<!DOCTYPE svg PUBLIC "-//W3C//DTD SVG 1.0//EN" "http://www.w3.org/TR/2001/REC-SVG-20010904/DTD/svg10.dtd">
<svg version="1.0" xmlns="http://www.w3.org/2000/svg" width="390px" height="100px" viewBox="0 0 390 100" preserveAspectRatio="xMidYMid meet">
 <g fill="#f9d338">
  <path d="M348.65 93.20 c-0.60 -0.15 -2.05 -1.10 -3.20 -2.15 -1.90 -1.65 -2.10 -2.10 -2.35 -4.55 -0.30 -4.10 0.40 -4.60 6.65 -4.40 l4.90 0.15 0.60 1.75 c0.55 1.70 0.70 1.75 3.35 1.90 2.45 0.15 2.90 0 3.75 -1.10 0.55 -0.65 1.45 -3.05 2.10 -5.30 1.30 -4.75 0.95 -5.75 -1.40 -4.05 -3.20 2.30 -8.55 3.25 -11.15 2 -0.65 -0.30 -1.80 -1.35 -2.65 -2.30 -2.10 -2.55 -2.30 -6.30 -0.55 -12.65 0.70 -2.60 1.75 -6.85 2.30 -9.40 2 -9.20 6.45 -15.80 11.70 -17.35 3.80 -1.15 7.60 -0.15 9.70 2.45 1.40 1.80 1.85 1.75 3.20 -0.20 l1.15 -1.70 4.65 -0.05 c2.55 0 4.85 0.10 5.15 0.25 0.45 0.30 -0.75 5.80 -4.85 21.75 -0.75 2.75 -1.95 7.70 -2.75 11 -3.45 14.60 -4.15 16.20 -8.80 20.25 -3.50 3.10 -5.60 3.70 -13.40 3.80 -3.85 0.05 -7.50 0 -8.10 -0.10z m17.15 -25.45 c1.30 -0.85 1.70 -1.90 3.60 -9 3.25 -11.75 3.25 -13.30 0.10 -14 -1.35 -0.30 -1.85 -0.10 -3.30 1.30 -1.85 1.75 -2.10 2.55 -4.70 13.55 -1.60 6.70 -1.65 6.95 -0.75 7.90 1.05 1.20 3.55 1.30 5.05 0.25z"/>
  <path d="M61 83.05 c-2.75 -0.45 -4.80 -1.50 -6.75 -3.50 -2.50 -2.65 -2.35 -5.75 0.90 -18.55 1.50 -5.90 3.25 -12.05 3.80 -13.60 1.35 -3.55 4.90 -7.55 8.10 -9.20 3.60 -1.80 9.10 -2.55 13.25 -1.75 3.95 0.70 5.45 1.40 7.45 3.55 1.45 1.55 1.50 1.70 1.50 6.70 0 6.85 0.05 6.80 -6.60 6.80 l-5.25 0 0.35 -3.30 c0.30 -2.75 0.20 -3.45 -0.55 -4.25 -1.10 -1.25 -2.95 -1.20 -4.75 0.05 -1.60 1.15 -2.45 3.55 -5 14.20 -0.80 3.35 -1.80 7.15 -2.20 8.50 -0.40 1.30 -0.75 2.70 -0.75 3 0 1.15 2.30 2.80 3.85 2.80 1.95 0 4.40 -2.60 5.15 -5.60 1.25 -4.65 1.20 -4.65 6.70 -4.80 2.75 -0.05 5.20 0.10 5.45 0.35 0.70 0.70 -1.40 7.30 -3.20 10.15 -2.15 3.35 -5.40 6.10 -8.50 7.25 -3 1.10 -9.45 1.70 -12.95 1.20z"/>
  <path d="M3.50 82.10 c0 -0.45 2.40 -6 5 -11.35 0.75 -1.65 3.45 -7.40 5.90 -12.75 2.50 -5.35 5.15 -11.20 6 -13 0.80 -1.80 2.65 -5.85 4.10 -9 4.25 -9.40 6 -12.95 6.55 -13.30 0.80 -0.45 15.05 -0.30 15.55 0.20 0.25 0.25 0.10 8.70 -0.35 20.40 -0.40 10.95 -0.90 23.95 -1.10 28.85 -0.20 6.05 -0.50 9 -0.90 9.35 -0.40 0.35 -3.05 0.50 -6.55 0.40 l-5.95 -0.15 0 -5.50 0 -5.50 -4.50 -0.15 c-2.80 -0.10 -4.90 0.10 -5.60 0.45 -0.75 0.40 -1.60 1.95 -2.65 4.90 -0.85 2.35 -1.85 4.65 -2.15 5.10 -0.50 0.65 -2 0.90 -7 1.20 -3.95 0.20 -6.35 0.15 -6.35 -0.15z m29.75 -22.75 c0.40 -0.65 0.95 -3.35 1.25 -6.10 0.30 -2.75 0.75 -6.95 1 -9.30 0.70 -6.10 0.65 -9 -0.15 -8.70 -0.60 0.25 -1 1.20 -3.85 8.85 -0.80 2.15 -2.50 6.50 -3.80 9.70 -1.40 3.60 -2.10 5.95 -1.80 6.15 0.30 0.15 1.90 0.35 3.55 0.40 2.65 0.05 3.15 -0.05 3.80 -1z"/>
  <path d="M95.65 80.25 c-3.25 -2.75 -3.20 -3.35 0.80 -19.45 1.95 -7.65 3.40 -14.15 3.25 -14.35 -0.15 -0.25 -1 -0.45 -1.95 -0.45 -0.95 0 -1.80 -0.15 -1.90 -0.40 -0.40 -0.60 0.65 -5.75 1.45 -6.95 0.45 -0.70 1.20 -1.15 2 -1.15 2.90 0 3.50 -1 4.95 -7.95 0.45 -2.05 1 -4 1.30 -4.40 0.40 -0.45 2.10 -0.65 6 -0.65 l5.45 0 0 1.40 c0 0.75 -0.45 3.05 -1 5.10 -0.55 2.05 -1 4.25 -1 4.80 0 1.25 1.05 1.80 2.65 1.45 2.15 -0.50 2.65 0.40 1.90 3.35 -1.20 4.65 -1.75 5.40 -4.25 5.40 -1.20 0 -2.40 0.30 -2.70 0.65 -0.45 0.50 -2.40 7 -3.40 11.35 -0.10 0.40 -0.90 3.65 -1.75 7.15 -1.75 7.30 -1.65 7.85 1.70 7.85 l2 0 -0.25 2.20 c-0.15 1.20 -0.70 3.05 -1.20 4.10 -1.10 2.25 -1.95 2.55 -8 2.65 -3.90 0.05 -4.10 0 -6.05 -1.70z"/>
  <path d="M181.75 81.55 c-5.25 -1.40 -8.20 -5.30 -7.55 -10.05 0.50 -3.75 5.60 -23.70 6.55 -25.50 1.45 -2.80 5.30 -6.50 8.40 -8.10 3.60 -1.80 9.25 -2.55 14.05 -1.85 4.10 0.55 5.60 1.30 7.95 3.90 1.60 1.80 1.85 2.40 1.85 4.50 0 2.85 -2.60 14.25 -3.50 15.30 -0.50 0.60 -2.35 0.75 -9.95 0.75 -6.70 0 -9.60 0.20 -10.20 0.65 -1.10 0.80 -2.20 4.15 -2.65 7.75 -0.40 3.55 0.35 4.60 3.20 4.60 2.60 0 3.90 -1.05 4.85 -3.95 0.45 -1.35 1.10 -2.70 1.40 -3 0.70 -0.55 10.35 -0.90 11.20 -0.40 0.85 0.55 -0.50 4.40 -2.80 7.75 -3.80 5.60 -7.80 7.55 -16.05 7.85 -2.90 0.15 -5.90 0.05 -6.75 -0.20z m18.05 -30.30 c0.90 -2.20 0.90 -5.95 0 -6.70 -1.40 -1.15 -3.95 -1.20 -5.40 -0.10 -2.25 1.80 -4.25 7.05 -3.05 8.20 0.15 0.20 2 0.35 4 0.35 l3.70 0 0.75 -1.75z"/>
  <path d="M237.10 81.10 c-1.85 -0.60 -4.65 -3.10 -5.40 -4.90 -0.40 -0.90 -0.70 -2.80 -0.70 -4.20 0 -3.30 1.35 -9.30 2.35 -10.25 0.50 -0.55 1.85 -0.75 4.95 -0.75 5.05 0 5.25 0.20 4.05 4.80 -1.10 4.10 -1.10 4.55 0.35 5.45 1.10 0.75 1.35 0.75 2.70 0.05 1.80 -0.90 1.85 -1.05 3.60 -8.30 2.70 -11.10 4.50 -18.30 5.75 -22.75 0.65 -2.45 1.95 -7.55 2.85 -11.25 l1.65 -6.75 6.50 0 6.50 0 -0.15 1.75 c-0.10 0.95 -0.75 3.90 -1.45 6.50 -0.70 2.60 -1.90 7.35 -2.65 10.50 -6 24.75 -7.30 29.25 -9.40 32.40 -2.05 3.15 -5.85 6.35 -8.50 7.15 -2.20 0.65 -11.40 1.05 -13 0.55z"/>
  <path d="M116 80.05 c0 -1.05 2.05 -10.35 3.25 -14.55 0.40 -1.50 1.30 -5.10 2 -8 0.65 -2.90 2.10 -8.85 3.25 -13.20 1.10 -4.40 2 -8.35 2 -8.80 0 -1.55 4.90 -10.75 7.60 -14.25 3.50 -4.50 8.05 -8.25 13.50 -11 6.45 -3.30 10.55 -4.25 18.25 -4.25 7.35 0.05 10.75 0.70 14.65 2.90 1.55 0.85 5.25 2.40 8.25 3.40 5.45 1.85 5.55 1.85 14 1.85 l8.50 0.05 5.50 -1.90 c3.05 -1 7.40 -2.85 9.70 -4.10 4.60 -2.50 4.80 -2.30 1.60 1.95 -5.20 6.80 -14.25 12.80 -23.30 15.40 -3.10 0.90 -16.50 1 -18.30 0.10 -0.65 -0.30 -2.55 -1.05 -4.20 -1.70 -1.65 -0.60 -4.20 -1.65 -5.60 -2.30 -5.05 -2.25 -11.95 -2.80 -17.40 -1.35 -3.55 0.90 -8.60 3.65 -11.40 6.15 -2.45 2.15 -5.70 7.05 -6.35 9.50 -1.70 6.30 -3.60 13.95 -4.55 18.05 -0.60 2.60 -1.45 6.10 -1.95 7.75 -0.50 1.65 -1.15 4.25 -1.45 5.75 -1.45 6.65 -2.70 11.35 -3.35 12.40 -0.70 1.05 -1 1.10 -7.45 1.10 -6.25 0 -6.75 -0.05 -6.75 -0.95z"/>
  <path d="M144.15 80.20 c-0.15 -0.45 -0.05 -6.35 0.25 -13.15 0.35 -6.75 0.60 -15.85 0.60 -20.20 0 -4.50 0.20 -8.35 0.50 -8.90 0.50 -0.85 1.10 -0.95 5.80 -0.95 4.25 0 5.30 0.15 5.55 0.80 0.25 0.75 -0.25 6.45 -1.65 17.70 -0.90 7.20 -0.90 8.50 0 8.50 0.55 0 2.80 -4.20 2.80 -5.25 0 -0.55 6.55 -16.90 7.60 -19 0.60 -1.10 1.30 -2.15 1.60 -2.35 0.75 -0.50 10.20 -0.50 10.50 0 0.10 0.20 -0.10 1.05 -0.45 1.85 -0.40 0.85 -3.40 7.25 -6.70 14.35 -3.30 7.05 -6.85 14.70 -7.90 17 -1.05 2.25 -2.60 5.50 -3.45 7.15 l-1.50 3 -6.60 0.15 c-5.80 0.10 -6.65 0.05 -6.95 -0.70z"/>
  <path d="M269.05 79.05 c-2.45 -2.45 -2.90 -4.65 -1.80 -9.35 1 -4.25 2.55 -7 5.50 -9.60 2.80 -2.45 5.50 -3.75 10.60 -5.15 2.15 -0.60 5.20 -1.75 6.75 -2.55 2.45 -1.30 3 -1.85 3.70 -3.75 0.80 -2 0.80 -2.45 0.15 -3.55 -1.85 -3.30 -6.25 -2.15 -8.50 2.15 l-1.25 2.50 -5.60 0.15 -5.60 0.15 0 -1.50 c0 -2.25 3.75 -7.35 7 -9.60 3.90 -2.65 6.20 -3.20 13.75 -3.20 5.65 0 6.75 0.15 8.50 1.10 3.55 1.85 4 2.70 4 7.35 0 2.20 -0.30 5.10 -0.65 6.45 -0.30 1.30 -0.85 3.40 -1.15 4.75 -0.35 1.30 -1 3.70 -1.45 5.35 -0.50 1.65 -1.10 4.15 -1.40 5.50 -0.30 1.40 -1 4.45 -1.55 6.85 -0.60 2.35 -1.05 4.75 -1.05 5.30 0 0.80 -0.45 1 -2.60 1.30 -1.45 0.15 -3.85 0.30 -5.30 0.30 -2.55 0 -2.70 -0.10 -3.25 -1.50 -0.70 -1.80 -1.50 -1.90 -3.55 -0.30 -3.15 2.35 -4.55 2.80 -9.05 2.80 l-4.25 0 -1.95 -1.95z m16.85 -7.20 c1.65 -0.80 3.10 -3.40 4.15 -7.50 0.50 -2 0.95 -3.90 0.95 -4.20 0 -1.70 -6 0.55 -8.95 3.30 -1.65 1.55 -2.75 4.95 -2.30 7.05 0.50 2.30 3.10 2.85 6.15 1.35z"/>
  <path d="M306.30 79.05 c-0.15 -0.25 1.35 -7.05 3.40 -15.10 2 -8.10 4.25 -17.15 5 -20.20 0.75 -3 1.70 -5.85 2.15 -6.35 0.65 -0.75 1.60 -0.90 5.50 -0.90 l4.65 0 0 1.45 c0 2.30 0.80 2.30 3.65 0.15 2.40 -1.85 6.55 -3.30 8.05 -2.85 0.30 0.10 1.15 0.30 1.95 0.45 0.75 0.20 2.25 1.15 3.35 2.10 1.75 1.60 2 2.10 2 3.95 0 1.80 -3.60 17.45 -5.75 25 -0.40 1.40 -1.10 4.20 -1.50 6.25 -1.40 6.45 -1.15 6.25 -7.65 6.40 -4.65 0.10 -5.60 0 -5.60 -0.60 0 -0.95 0.95 -5.10 4.30 -18.60 1.50 -6.05 2.70 -11.70 2.70 -12.50 0 -1.90 -0.80 -2.70 -2.75 -2.70 -2.70 0 -4.30 2.65 -5.60 9 -0.15 0.70 -0.65 2.70 -1.15 4.50 -0.45 1.80 -1.15 4.60 -1.50 6.25 -0.85 4 -2.90 11.95 -3.50 13.50 -0.45 1.25 -0.60 1.25 -5.95 1.25 -3 0 -5.60 -0.20 -5.75 -0.45z"/>
 </g>
</svg>